<svg width="18" height="16" viewBox="0 0 18 16" fill="none" xmlns="http://www.w3.org/2000/svg">
<path fill-rule="evenodd" clip-rule="evenodd" d="M17.7656 2.35562C18.0781 2.04312 18.0781 1.53937 17.7656 1.23062L16.7688 0.234375C16.6156 0.078125 16.4125 0 16.2094 0C16.0063 0 15.8016 0.078125 15.6453 0.234375L14.7938 1.08594L16.915 3.20719L17.7656 2.35562ZM13.0125 8.55937L17.3 4.2375C17.6906 4.50313 18 4.96875 18 5.5V14.5C18 15.325 17.325 16 16.5 16H1.5C0.675 16 0 15.325 0 14.5V5.5C0 4.675 0.675 4 1.5 4H10.4406L9.44375 4.98812C9.16134 5.26875 9 5.65656 9 6.05313V8H2.5C2.225 8 2 8.225 2 8.5C2 8.775 2.225 9 2.5 9H11.9469C12.3438 9 12.7312 8.8375 13.0125 8.55937ZM2 11.5C2 11.775 2.225 12 2.5 12H15.5C15.775 12 16 11.775 16 11.5C16 11.2238 15.7762 11 15.5 11H2.5C2.225 11 2 11.225 2 11.5ZM10 8V6.05313C10 5.91875 10.0531 5.79063 10.1472 5.69666L14.0847 1.79353L16.2059 3.91478L12.3028 7.85228C12.2091 7.94678 12.0814 8 11.9481 8H10Z" fill="white" fill-opacity="0.6"/>
</svg>
