<svg width="20" height="16" viewBox="0 0 20 16" fill="none" xmlns="http://www.w3.org/2000/svg">
<path fill-rule="evenodd" clip-rule="evenodd" d="M3 0H17C18.6562 0 20 1.34312 20 3V5C20 5.55219 19.5522 6 19 6C18.4478 6 18 5.55219 18 5V3C18 2.44781 17.5522 2 17 2H3C2.44781 2 2 2.44781 2 3V5C2 5.55219 1.55219 6 1 6C0.447813 6 0 5.55219 0 5V3C0 1.34312 1.34312 0 3 0ZM4 14.5C4 15.3281 4.67188 16 5.5 16H14.5C15.3284 16 16 15.3284 16 14.5V3H4V14.5ZM14.5 12.5V14.5H12.5C12.5 13.3938 13.3938 12.5 14.5 12.5ZM13 9C13 7.61938 11.6569 6.5 10 6.5C8.31562 6.5 7 7.61938 7 9C7 10.3806 8.34312 11.5 10 11.5C11.6569 11.5 13 10.3806 13 9ZM5.5 12.5C6.60563 12.5 7.5 13.3944 7.5 14.5H5.5V12.5Z" fill="white" fill-opacity="0.6"/>
</svg>
