<svg width="24" height="28" viewBox="0 0 24 28" fill="none" xmlns="http://www.w3.org/2000/svg">
<path d="M8 12.668H5.33333V15.3346H8V12.668ZM13.3333 12.668H10.6667V15.3346H13.3333V12.668ZM18.6667 12.668H16V15.3346H18.6667V12.668ZM21.3333 3.33464H20V0.667969H17.3333V3.33464H6.66667V0.667969H4V3.33464H2.66667C1.18667 3.33464 0.0133333 4.53464 0.0133333 6.0013L0 24.668C0 26.1346 1.18667 27.3346 2.66667 27.3346H21.3333C22.8 27.3346 24 26.1346 24 24.668V6.0013C24 4.53464 22.8 3.33464 21.3333 3.33464ZM21.3333 24.668H2.66667V10.0013H21.3333V24.668Z" fill="white"/>
</svg>
