<svg width="33" height="24" viewBox="0 0 33 24" fill="none" xmlns="http://www.w3.org/2000/svg">
<path fill-rule="evenodd" clip-rule="evenodd" d="M29.3 18.4008C31.0675 18.4008 32.5 16.9683 32.5 15.2008V4.00078C32.5 2.23328 31.065 0.800781 29.3 0.800781H8.5C6.7325 0.800781 5.3 2.23328 5.3 4.00078V15.2008C5.3 16.9683 6.7325 18.4008 8.5 18.4008H29.3ZM14.855 9.60078C14.855 6.94978 16.6455 4.80078 18.855 4.80078C21.11 4.80078 22.855 6.94978 22.855 9.60078C22.855 12.2518 21.064 14.4008 18.855 14.4008C16.6455 14.4008 14.855 12.2518 14.855 9.60078ZM30.1 12.8408V6.36078C29.97 6.38078 29.835 6.40078 29.7 6.40078C28.1535 6.40078 26.9 5.14728 26.9 3.60078C26.9 3.49068 26.9174 3.38581 26.9348 3.2809L26.9348 3.28088C26.9392 3.25422 26.9436 3.22754 26.9478 3.20078H10.85L10.8511 3.20636C10.8757 3.33645 10.9 3.46473 10.9 3.60078C10.9 5.14728 9.6465 6.40078 8.1 6.40078C7.9789 6.40078 7.86251 6.38356 7.7462 6.36635L7.7001 6.35957V12.8396L7.70909 12.8383C7.83623 12.8199 7.96811 12.8008 8.1 12.8008C9.6465 12.8008 10.9 14.0543 10.9 15.6008C10.9 15.7111 10.8826 15.8162 10.8652 15.9213C10.8608 15.9478 10.8564 15.9742 10.8523 16.0008H26.9473L26.9413 15.9656C26.9207 15.8472 26.9 15.7282 26.9 15.6008C26.9 14.0543 28.1535 12.8008 29.7 12.8008C29.835 12.8008 29.97 12.8208 30.1 12.8408ZM6.5 23.2008H26.1C26.765 23.2008 27.3 22.6633 27.3 22.0008C27.3 21.3383 26.7625 20.8008 26.1 20.8008H6.5C4.515 20.8008 2.9 19.1858 2.9 17.2008V5.20078C2.9 4.54078 2.3625 4.00078 1.7 4.00078C1.0375 4.00078 0.5 4.54078 0.5 5.20078V17.2008C0.5 20.5108 3.1915 23.2008 6.5 23.2008Z" fill="white"/>
</svg>
