<svg width="24" height="20" viewBox="0 0 24 20" fill="none" xmlns="http://www.w3.org/2000/svg">
<path fill-rule="evenodd" clip-rule="evenodd" d="M13.2001 5.30002C13.2001 7.9509 11.0513 10.1 8.40003 10.1C5.74877 10.1 3.60001 7.9509 3.60001 5.30002C3.60001 2.64913 5.74877 0.5 8.40003 0.5C11.0513 0.5 13.2001 2.64913 13.2001 5.30002ZM6.49878 11.9006H10.3013C13.8901 11.9006 16.8001 14.8106 16.8001 18.3994C16.8001 19.1194 16.2188 19.7007 15.4988 19.7007H1.29976C0.582002 19.7007 0 19.1194 0 18.3994C0 14.8106 2.90889 11.9006 6.49878 11.9006ZM17.9663 12.5H15.1969C16.9201 13.9138 18.0001 16.0288 18.0001 18.3988C18.0001 18.8788 17.8576 19.3213 17.6251 19.7001H22.8001C23.4638 19.7001 24.0001 19.1601 24.0001 18.4663C24.0001 15.1851 21.3151 12.5 17.9663 12.5ZM20.3999 5.90002C20.3999 8.22128 18.5212 10.1 16.1999 10.1C15.0299 10.1 13.9762 9.62004 13.2153 8.85166C13.9525 7.85528 14.3999 6.63202 14.3999 5.30002C14.3999 4.30252 14.1299 3.37364 13.6979 2.54413C14.3984 2.02082 15.2583 1.7 16.1999 1.7C18.5212 1.7 20.3999 3.57876 20.3999 5.90002Z" fill="white"/>
</svg>
