<svg width="32" height="32" viewBox="0 0 32 32" fill="none" xmlns="http://www.w3.org/2000/svg">
<path fill-rule="evenodd" clip-rule="evenodd" d="M14.8438 15.7812L1.635 10.4062C0.6425 9.94365 0 8.94365 0 7.94365C0 6.94365 0.6425 5.99928 1.635 5.59553L14.8319 0.224139C15.5781 -0.072723 16.4219 -0.074723 17.1562 0.218277L30.365 5.53928C31.3575 5.94365 32 6.83115 32 7.94365C32 9.05615 31.3563 9.94365 30.3131 10.3477L17.1131 15.7189C16.7381 15.8693 16.3422 15.9437 15.9438 15.9437C15.6062 15.9437 15.2063 15.9249 14.8438 15.7812ZM28.3125 7.94368L16.0375 3.0018L3.6875 7.99993L15.9625 12.9437L28.3125 7.94368ZM30.3625 21.5937C29.595 21.2792 28.72 21.6484 28.4075 22.4162C28.2005 22.9221 28.2903 23.4749 28.595 23.8812L15.9638 28.9962L3.40125 23.8831C3.70788 23.4749 3.79775 22.9218 3.59069 22.4162C3.27819 21.6487 2.40131 21.2793 1.63569 21.5937C0.6425 21.9437 0 22.9437 0 23.9999C0 25.0562 0.6425 25.9974 1.635 26.4018L14.8438 31.7812C15.2063 31.9249 15.6062 31.9999 15.9438 31.9999C16.3422 31.9999 16.7381 31.9257 17.1131 31.7753L30.3131 26.4041C31.3563 25.9437 32 25.0562 32 23.9999C32 22.9437 31.3563 21.9437 30.3625 21.5937ZM28.4075 14.4162C28.72 13.6464 29.595 13.2772 30.3625 13.5937C31.3563 13.9437 32 15.0062 32 16.0062C32 17.0062 31.3563 17.9437 30.3656 18.4047L17.1656 23.7759C16.7906 23.9263 16.3947 24.0052 15.9963 24.0052C15.6038 24.0052 15.2065 23.9264 14.8413 23.7818L1.635 18.4049C0.6425 18.0006 0 17.0624 0 16.0062C0 14.9499 0.6425 13.9437 1.63506 13.5981C2.40069 13.2818 3.27756 13.6512 3.59006 14.4206C3.79713 14.9262 3.70725 15.4792 3.40062 15.8874L15.9638 20.9962L28.595 15.8812C28.2903 15.4749 28.2005 14.9221 28.4075 14.4162Z" fill="#F6F8FE"/>
</svg>
